<mxfile host="Electron" modified="2023-11-20T03:32:32.322Z" agent="Mozilla/5.0 (Macintosh; Intel Mac OS X 10_15_7) AppleWebKit/537.36 (KHTML, like Gecko) draw.io/22.0.3 Chrome/114.0.5735.289 Electron/25.8.4 Safari/537.36" etag="X5CNN9JVF0Lu-Sg3mAHX" version="22.0.3" type="device">
  <diagram name="第 1 页" id="uKlGg8P8eyeJLwApAIIl">
    <mxGraphModel dx="1026" dy="658" grid="1" gridSize="10" guides="1" tooltips="1" connect="1" arrows="1" fold="1" page="1" pageScale="1" pageWidth="827" pageHeight="1169" math="0" shadow="0">
      <root>
        <mxCell id="0" />
        <mxCell id="1" parent="0" />
        <mxCell id="UEzdhy79cI3JfbTJyNad-9" style="rounded=0;orthogonalLoop=1;jettySize=auto;html=1;strokeWidth=3;fontSize=24;" parent="1" source="UEzdhy79cI3JfbTJyNad-1" target="UEzdhy79cI3JfbTJyNad-2" edge="1">
          <mxGeometry relative="1" as="geometry" />
        </mxCell>
        <mxCell id="UEzdhy79cI3JfbTJyNad-10" style="rounded=0;orthogonalLoop=1;jettySize=auto;html=1;strokeWidth=3;fontSize=24;" parent="1" source="UEzdhy79cI3JfbTJyNad-1" target="UEzdhy79cI3JfbTJyNad-6" edge="1">
          <mxGeometry relative="1" as="geometry" />
        </mxCell>
        <mxCell id="UEzdhy79cI3JfbTJyNad-1" value="5" style="ellipse;whiteSpace=wrap;html=1;aspect=fixed;fontSize=24;" parent="1" vertex="1">
          <mxGeometry x="400" width="60" height="60" as="geometry" />
        </mxCell>
        <mxCell id="UEzdhy79cI3JfbTJyNad-7" style="rounded=0;orthogonalLoop=1;jettySize=auto;html=1;strokeWidth=3;fontSize=24;" parent="1" source="UEzdhy79cI3JfbTJyNad-2" target="UEzdhy79cI3JfbTJyNad-3" edge="1">
          <mxGeometry relative="1" as="geometry" />
        </mxCell>
        <mxCell id="UEzdhy79cI3JfbTJyNad-8" style="rounded=0;orthogonalLoop=1;jettySize=auto;html=1;strokeWidth=3;fontSize=24;" parent="1" source="UEzdhy79cI3JfbTJyNad-2" target="UEzdhy79cI3JfbTJyNad-4" edge="1">
          <mxGeometry relative="1" as="geometry" />
        </mxCell>
        <mxCell id="UEzdhy79cI3JfbTJyNad-2" value="2" style="ellipse;whiteSpace=wrap;html=1;aspect=fixed;fontSize=24;" parent="1" vertex="1">
          <mxGeometry x="310" y="80" width="60" height="60" as="geometry" />
        </mxCell>
        <mxCell id="UEzdhy79cI3JfbTJyNad-3" value="1" style="ellipse;whiteSpace=wrap;html=1;aspect=fixed;fontSize=24;" parent="1" vertex="1">
          <mxGeometry x="260" y="160" width="60" height="60" as="geometry" />
        </mxCell>
        <mxCell id="UEzdhy79cI3JfbTJyNad-4" value="4" style="ellipse;whiteSpace=wrap;html=1;aspect=fixed;fontSize=24;" parent="1" vertex="1">
          <mxGeometry x="360" y="160" width="60" height="60" as="geometry" />
        </mxCell>
        <mxCell id="UEzdhy79cI3JfbTJyNad-5" value="6" style="ellipse;whiteSpace=wrap;html=1;aspect=fixed;fontSize=24;" parent="1" vertex="1">
          <mxGeometry x="450" y="160" width="60" height="60" as="geometry" />
        </mxCell>
        <mxCell id="UEzdhy79cI3JfbTJyNad-11" style="rounded=0;orthogonalLoop=1;jettySize=auto;html=1;strokeWidth=3;fontSize=24;" parent="1" source="UEzdhy79cI3JfbTJyNad-6" target="UEzdhy79cI3JfbTJyNad-5" edge="1">
          <mxGeometry relative="1" as="geometry" />
        </mxCell>
        <mxCell id="UEzdhy79cI3JfbTJyNad-6" value="7" style="ellipse;whiteSpace=wrap;html=1;aspect=fixed;fontSize=24;" parent="1" vertex="1">
          <mxGeometry x="480" y="80" width="60" height="60" as="geometry" />
        </mxCell>
      </root>
    </mxGraphModel>
  </diagram>
</mxfile>
